<svg xmlns="http://www.w3.org/2000/svg" viewBox="0 0 60 30">
  <path fill="#012169" d="M0 0h60v30H0z"/>
  <path
    fill="#fff"
    d="M7 0l23 11.5L53 0h7v4.5L37 15l23 10.5V30h-7L30 18.5 7 30H0v-4.5L23 15 0 4.5V0h7z"
  />
  <path
    fill="#c8102e"
    d="M0 0l20 10h-4L0 1.5V0zm40 20 20 10v-1.5L44 20h-4zm-40 10 20-10h4L0 28.5V30zm60-30-20 10h4L60 1.5V0z"
  />
  <path fill="#fff" d="M24 0v12H0v6h24v12h12V18h24v-6H36V0H24z"/>
  <path fill="#c8102e" d="M26 0v14H0v2h26v14h8V16h26v-2H34V0h-8z"/>
</svg>
